<?xml version="1.0" encoding="UTF-8"?>
<svg id="Layer_1" data-name="Layer 1" xmlns="http://www.w3.org/2000/svg" viewBox="0 0 53.92 49.4">
  <defs>
    <style>
      .cls-1 {
        fill: #a5ceae;
      }

      .cls-2 {
        fill: #7fc18d;
      }
    </style>
  </defs>
  <rect class="cls-2" x="51.08" y="19.21" width="2.84" height="2.74"/>
  <rect class="cls-2" x="51.08" y="16.47" width="2.84" height="2.74"/>
  <rect class="cls-2" x="51.08" y="13.72" width="2.84" height="2.74"/>
  <rect class="cls-2" x="51.08" y="10.98" width="2.84" height="2.75"/>
  <rect class="cls-2" x="51.08" y="8.23" width="2.84" height="2.74"/>
  <rect class="cls-2" x="48.25" y="24.7" width="2.84" height="2.74"/>
  <rect class="cls-2" x="48.25" y="21.96" width="2.84" height="2.74"/>
  <rect class="cls-2" x="48.25" y="19.21" width="2.84" height="2.74"/>
  <rect class="cls-2" x="48.25" y="16.47" width="2.84" height="2.74"/>
  <rect class="cls-2" x="48.25" y="13.72" width="2.84" height="2.74"/>
  <rect class="cls-2" x="48.25" y="10.98" width="2.84" height="2.75"/>
  <rect class="cls-2" x="48.25" y="8.23" width="2.84" height="2.74"/>
  <rect class="cls-2" x="48.25" y="5.49" width="2.84" height="2.74"/>
  <rect class="cls-2" x="45.41" y="27.44" width="2.84" height="2.75"/>
  <rect class="cls-2" x="45.41" y="24.7" width="2.84" height="2.74"/>
  <rect class="cls-1" x="45.41" y="21.96" width="2.84" height="2.74"/>
  <rect class="cls-2" x="45.41" y="19.21" width="2.84" height="2.74"/>
  <rect class="cls-1" x="45.41" y="16.47" width="2.84" height="2.74"/>
  <rect class="cls-1" x="45.41" y="13.72" width="2.84" height="2.74"/>
  <rect class="cls-1" x="45.41" y="10.98" width="2.84" height="2.75"/>
  <rect class="cls-1" x="45.41" y="8.23" width="2.84" height="2.74"/>
  <rect class="cls-1" x="45.41" y="5.49" width="2.84" height="2.74"/>
  <rect class="cls-2" x="45.41" y="2.74" width="2.84" height="2.74"/>
  <rect class="cls-2" x="42.57" y="30.19" width="2.84" height="2.74"/>
  <rect class="cls-2" x="42.57" y="27.44" width="2.84" height="2.75"/>
  <rect class="cls-2" x="42.57" y="24.7" width="2.84" height="2.74"/>
  <rect class="cls-1" x="42.57" y="21.96" width="2.84" height="2.74"/>
  <rect class="cls-1" x="42.57" y="19.21" width="2.84" height="2.74"/>
  <rect class="cls-1" x="42.57" y="16.47" width="2.84" height="2.74"/>
  <rect class="cls-1" x="42.57" y="13.72" width="2.84" height="2.74"/>
  <rect class="cls-1" x="42.57" y="10.98" width="2.84" height="2.75"/>
  <rect class="cls-1" x="42.57" y="8.23" width="2.84" height="2.74"/>
  <rect class="cls-1" x="42.57" y="5.49" width="2.84" height="2.74"/>
  <rect class="cls-1" x="42.57" y="2.74" width="2.84" height="2.74"/>
  <rect class="cls-2" x="42.57" width="2.84" height="2.74"/>
  <rect class="cls-2" x="39.73" y="32.93" width="2.84" height="2.74"/>
  <rect class="cls-2" x="39.73" y="30.19" width="2.84" height="2.74"/>
  <rect class="cls-2" x="39.73" y="27.44" width="2.84" height="2.75"/>
  <rect class="cls-2" x="39.73" y="24.7" width="2.84" height="2.74"/>
  <rect class="cls-1" x="39.73" y="21.96" width="2.84" height="2.74"/>
  <rect class="cls-1" x="39.73" y="19.21" width="2.84" height="2.74"/>
  <rect class="cls-1" x="39.73" y="16.47" width="2.84" height="2.74"/>
  <rect class="cls-1" x="39.73" y="13.72" width="2.84" height="2.74"/>
  <rect class="cls-1" x="39.73" y="10.98" width="2.84" height="2.75"/>
  <rect class="cls-1" x="39.73" y="8.23" width="2.84" height="2.74"/>
  <rect class="cls-1" x="39.73" y="5.49" width="2.84" height="2.74"/>
  <rect class="cls-1" x="39.73" y="2.74" width="2.84" height="2.74"/>
  <rect class="cls-2" x="39.73" width="2.84" height="2.74"/>
  <rect class="cls-2" x="36.89" y="35.68" width="2.84" height="2.74"/>
  <rect class="cls-2" x="36.89" y="32.93" width="2.84" height="2.74"/>
  <rect class="cls-2" x="36.89" y="30.19" width="2.84" height="2.74"/>
  <rect class="cls-1" x="36.89" y="27.44" width="2.84" height="2.75"/>
  <rect class="cls-1" x="36.89" y="24.7" width="2.84" height="2.74"/>
  <rect class="cls-2" x="36.89" y="21.96" width="2.84" height="2.74"/>
  <rect class="cls-1" x="36.89" y="19.21" width="2.84" height="2.74"/>
  <rect class="cls-1" x="36.89" y="16.47" width="2.84" height="2.74"/>
  <rect class="cls-1" x="36.89" y="13.72" width="2.84" height="2.74"/>
  <rect class="cls-1" x="36.89" y="10.98" width="2.84" height="2.75"/>
  <rect class="cls-1" x="36.89" y="8.23" width="2.84" height="2.74"/>
  <rect class="cls-1" x="36.89" y="5.49" width="2.84" height="2.74"/>
  <rect class="cls-1" x="36.89" y="2.74" width="2.84" height="2.74"/>
  <rect class="cls-2" x="36.89" width="2.84" height="2.74"/>
  <rect class="cls-2" x="34.06" y="38.42" width="2.84" height="2.74"/>
  <rect class="cls-2" x="34.06" y="35.68" width="2.84" height="2.74"/>
  <rect class="cls-2" x="34.06" y="32.93" width="2.84" height="2.74"/>
  <rect class="cls-2" x="34.06" y="30.19" width="2.84" height="2.74"/>
  <rect class="cls-1" x="34.06" y="27.44" width="2.84" height="2.75"/>
  <rect class="cls-1" x="34.06" y="24.7" width="2.84" height="2.74"/>
  <rect class="cls-1" x="34.06" y="21.96" width="2.84" height="2.74"/>
  <rect class="cls-1" x="34.06" y="19.21" width="2.84" height="2.74"/>
  <rect class="cls-1" x="34.06" y="16.47" width="2.84" height="2.74"/>
  <rect class="cls-1" x="34.06" y="13.72" width="2.84" height="2.74"/>
  <rect class="cls-1" x="34.06" y="10.98" width="2.84" height="2.75"/>
  <rect class="cls-1" x="34.06" y="8.23" width="2.84" height="2.74"/>
  <rect class="cls-1" x="34.06" y="5.49" width="2.84" height="2.74"/>
  <rect class="cls-1" x="34.06" y="2.74" width="2.84" height="2.74"/>
  <rect class="cls-2" x="34.06" width="2.84" height="2.74"/>
  <rect class="cls-2" x="31.22" y="41.17" width="2.84" height="2.75"/>
  <rect class="cls-2" x="31.22" y="38.42" width="2.84" height="2.74"/>
  <rect class="cls-2" x="31.22" y="35.68" width="2.84" height="2.74"/>
  <rect class="cls-1" x="31.22" y="32.93" width="2.84" height="2.74"/>
  <rect class="cls-1" x="31.22" y="30.19" width="2.84" height="2.74"/>
  <rect class="cls-1" x="31.22" y="27.44" width="2.84" height="2.75"/>
  <rect class="cls-1" x="31.22" y="24.7" width="2.84" height="2.74"/>
  <rect class="cls-1" x="31.22" y="21.96" width="2.84" height="2.74"/>
  <rect class="cls-1" x="31.22" y="19.21" width="2.84" height="2.74"/>
  <rect class="cls-1" x="31.22" y="16.47" width="2.84" height="2.74"/>
  <rect class="cls-1" x="31.22" y="13.72" width="2.84" height="2.74"/>
  <rect class="cls-1" x="31.22" y="10.98" width="2.84" height="2.75"/>
  <rect class="cls-1" x="31.22" y="8.23" width="2.84" height="2.74"/>
  <rect class="cls-1" x="31.22" y="5.49" width="2.84" height="2.74"/>
  <rect class="cls-2" x="31.22" y="2.74" width="2.84" height="2.74"/>
  <rect class="cls-2" x="28.38" y="43.91" width="2.84" height="2.74"/>
  <rect class="cls-2" x="28.38" y="41.17" width="2.84" height="2.75"/>
  <rect class="cls-2" x="28.38" y="38.42" width="2.84" height="2.74"/>
  <rect class="cls-2" x="28.38" y="35.68" width="2.84" height="2.74"/>
  <rect class="cls-1" x="28.38" y="32.93" width="2.84" height="2.74"/>
  <rect class="cls-2" x="28.38" y="30.19" width="2.84" height="2.74"/>
  <rect class="cls-1" x="28.38" y="27.44" width="2.84" height="2.75"/>
  <rect class="cls-1" x="28.38" y="24.7" width="2.84" height="2.74"/>
  <rect class="cls-1" x="28.38" y="21.96" width="2.84" height="2.74"/>
  <rect class="cls-1" x="28.38" y="19.21" width="2.84" height="2.74"/>
  <rect class="cls-1" x="28.38" y="16.47" width="2.84" height="2.74"/>
  <rect class="cls-1" x="28.38" y="13.72" width="2.84" height="2.74"/>
  <rect class="cls-1" x="28.38" y="10.98" width="2.84" height="2.75"/>
  <rect class="cls-1" x="28.38" y="8.23" width="2.84" height="2.74"/>
  <rect class="cls-2" x="28.38" y="5.49" width="2.84" height="2.74"/>
  <rect class="cls-2" x="25.54" y="46.66" width="2.84" height="2.74"/>
  <rect class="cls-2" x="25.54" y="43.91" width="2.84" height="2.74"/>
  <rect class="cls-1" x="25.54" y="41.17" width="2.84" height="2.75"/>
  <rect class="cls-1" x="25.54" y="38.42" width="2.84" height="2.74"/>
  <rect class="cls-1" x="25.54" y="35.68" width="2.84" height="2.74"/>
  <rect class="cls-1" x="25.54" y="32.93" width="2.84" height="2.74"/>
  <rect class="cls-1" x="25.54" y="30.19" width="2.84" height="2.74"/>
  <rect class="cls-1" x="25.54" y="27.44" width="2.84" height="2.75"/>
  <rect class="cls-1" x="25.54" y="24.7" width="2.84" height="2.74"/>
  <rect class="cls-1" x="25.54" y="21.96" width="2.84" height="2.74"/>
  <rect class="cls-1" x="25.54" y="19.21" width="2.84" height="2.74"/>
  <rect class="cls-1" x="25.54" y="16.47" width="2.84" height="2.74"/>
  <rect class="cls-1" x="25.54" y="13.72" width="2.84" height="2.74"/>
  <rect class="cls-1" x="25.54" y="10.98" width="2.84" height="2.75"/>
  <rect class="cls-2" x="25.54" y="8.23" width="2.84" height="2.74"/>
  <rect class="cls-2" x="22.7" y="43.91" width="2.84" height="2.74"/>
  <rect class="cls-1" x="22.7" y="41.17" width="2.84" height="2.75"/>
  <rect class="cls-1" x="22.7" y="38.42" width="2.84" height="2.74"/>
  <rect class="cls-1" x="22.7" y="35.68" width="2.84" height="2.74"/>
  <rect class="cls-1" x="22.7" y="32.93" width="2.84" height="2.74"/>
  <rect class="cls-1" x="22.7" y="30.19" width="2.84" height="2.74"/>
  <rect class="cls-1" x="22.7" y="27.44" width="2.84" height="2.75"/>
  <rect class="cls-1" x="22.7" y="24.7" width="2.84" height="2.74"/>
  <rect class="cls-1" x="22.7" y="21.96" width="2.84" height="2.74"/>
  <rect class="cls-1" x="22.7" y="19.21" width="2.84" height="2.74"/>
  <rect class="cls-1" x="22.7" y="16.47" width="2.84" height="2.74"/>
  <rect class="cls-1" x="22.7" y="13.72" width="2.84" height="2.74"/>
  <rect class="cls-1" x="22.7" y="10.98" width="2.84" height="2.75"/>
  <rect class="cls-1" x="22.7" y="8.23" width="2.84" height="2.74"/>
  <rect class="cls-2" x="22.7" y="5.49" width="2.84" height="2.74"/>
  <rect class="cls-2" x="19.87" y="41.17" width="2.84" height="2.75"/>
  <rect class="cls-2" x="19.87" y="38.42" width="2.84" height="2.74"/>
  <rect class="cls-1" x="19.87" y="35.68" width="2.84" height="2.74"/>
  <rect class="cls-1" x="19.87" y="32.93" width="2.84" height="2.74"/>
  <rect class="cls-1" x="19.87" y="30.19" width="2.84" height="2.74"/>
  <rect class="cls-1" x="19.87" y="27.44" width="2.84" height="2.75"/>
  <rect class="cls-1" x="19.87" y="24.7" width="2.84" height="2.74"/>
  <rect class="cls-1" x="19.87" y="21.96" width="2.84" height="2.74"/>
  <rect class="cls-1" x="19.87" y="19.21" width="2.84" height="2.74"/>
  <rect class="cls-1" x="19.87" y="16.47" width="2.84" height="2.74"/>
  <rect class="cls-1" x="19.87" y="13.72" width="2.84" height="2.74"/>
  <rect class="cls-1" x="19.87" y="10.98" width="2.84" height="2.75"/>
  <rect class="cls-1" x="19.87" y="8.23" width="2.84" height="2.74"/>
  <rect class="cls-1" x="19.87" y="5.49" width="2.84" height="2.74"/>
  <rect class="cls-2" x="19.87" y="2.74" width="2.84" height="2.74"/>
  <rect class="cls-2" x="17.03" y="38.42" width="2.84" height="2.74"/>
  <rect class="cls-1" x="17.03" y="35.68" width="2.84" height="2.74"/>
  <rect class="cls-1" x="17.03" y="32.93" width="2.84" height="2.74"/>
  <rect class="cls-1" x="17.03" y="30.19" width="2.84" height="2.74"/>
  <rect class="cls-1" x="17.03" y="27.44" width="2.84" height="2.75"/>
  <rect class="cls-1" x="17.03" y="24.7" width="2.84" height="2.74"/>
  <rect class="cls-1" x="17.03" y="21.96" width="2.84" height="2.74"/>
  <rect class="cls-1" x="17.03" y="19.21" width="2.84" height="2.74"/>
  <rect class="cls-1" x="17.03" y="16.47" width="2.84" height="2.74"/>
  <rect class="cls-1" x="17.03" y="13.72" width="2.84" height="2.74"/>
  <rect class="cls-1" x="17.03" y="10.98" width="2.84" height="2.75"/>
  <rect class="cls-1" x="17.03" y="8.23" width="2.84" height="2.74"/>
  <rect class="cls-1" x="17.03" y="5.49" width="2.84" height="2.74"/>
  <rect class="cls-1" x="17.03" y="2.74" width="2.84" height="2.74"/>
  <rect class="cls-2" x="17.03" width="2.84" height="2.74"/>
  <rect class="cls-2" x="14.19" y="35.68" width="2.84" height="2.74"/>
  <rect class="cls-1" x="14.19" y="32.93" width="2.84" height="2.74"/>
  <rect class="cls-1" x="14.19" y="30.19" width="2.84" height="2.74"/>
  <rect class="cls-1" x="14.19" y="27.44" width="2.84" height="2.75"/>
  <rect class="cls-1" x="14.19" y="24.7" width="2.84" height="2.74"/>
  <rect class="cls-1" x="14.19" y="21.96" width="2.84" height="2.74"/>
  <rect class="cls-1" x="14.19" y="19.21" width="2.84" height="2.74"/>
  <rect class="cls-1" x="14.19" y="16.47" width="2.84" height="2.74"/>
  <rect class="cls-1" x="14.19" y="13.72" width="2.84" height="2.74"/>
  <rect class="cls-1" x="14.19" y="10.98" width="2.84" height="2.75"/>
  <rect class="cls-1" x="14.19" y="8.23" width="2.84" height="2.74"/>
  <rect class="cls-1" x="14.19" y="5.49" width="2.84" height="2.74"/>
  <rect class="cls-1" x="14.19" y="2.74" width="2.84" height="2.74"/>
  <rect class="cls-2" x="14.19" width="2.84" height="2.74"/>
  <rect class="cls-2" x="11.35" y="32.93" width="2.84" height="2.74"/>
  <rect class="cls-1" x="11.35" y="30.19" width="2.84" height="2.74"/>
  <rect class="cls-1" x="11.35" y="27.44" width="2.84" height="2.75"/>
  <rect class="cls-1" x="11.35" y="24.7" width="2.84" height="2.74"/>
  <rect class="cls-1" x="11.35" y="21.96" width="2.84" height="2.74"/>
  <rect class="cls-1" x="11.35" y="19.21" width="2.84" height="2.74"/>
  <rect class="cls-1" x="11.35" y="16.47" width="2.84" height="2.74"/>
  <rect class="cls-1" x="11.35" y="13.72" width="2.84" height="2.74"/>
  <rect class="cls-1" x="11.35" y="10.98" width="2.84" height="2.75"/>
  <rect class="cls-1" x="11.35" y="2.74" width="2.84" height="2.74"/>
  <rect class="cls-2" x="11.35" width="2.84" height="2.74"/>
  <rect class="cls-2" x="8.51" y="30.19" width="2.84" height="2.74"/>
  <rect class="cls-1" x="8.51" y="27.44" width="2.84" height="2.75"/>
  <rect class="cls-1" x="8.51" y="24.7" width="2.84" height="2.74"/>
  <rect class="cls-1" x="8.51" y="21.96" width="2.84" height="2.74"/>
  <rect class="cls-1" x="8.51" y="19.21" width="2.84" height="2.74"/>
  <rect class="cls-1" x="8.51" y="16.47" width="2.84" height="2.74"/>
  <rect class="cls-1" x="8.51" y="5.49" width="2.84" height="2.74"/>
  <rect class="cls-1" x="8.51" y="2.74" width="2.84" height="2.74"/>
  <rect class="cls-2" x="8.51" width="2.84" height="2.74"/>
  <rect class="cls-2" x="5.68" y="27.44" width="2.84" height="2.75"/>
  <rect class="cls-1" x="5.68" y="24.7" width="2.84" height="2.74"/>
  <rect class="cls-1" x="5.68" y="21.96" width="2.84" height="2.74"/>
  <rect class="cls-1" x="5.68" y="19.21" width="2.84" height="2.74"/>
  <rect class="cls-1" x="5.68" y="16.47" width="2.84" height="2.74"/>
  <rect class="cls-1" x="5.68" y="13.72" width="2.84" height="2.74"/>
  <rect class="cls-1" x="5.68" y="10.98" width="2.84" height="2.75"/>
  <rect class="cls-1" x="5.68" y="8.23" width="2.84" height="2.74"/>
  <rect class="cls-1" x="5.68" y="5.49" width="2.84" height="2.74"/>
  <rect class="cls-2" x="5.68" y="2.74" width="2.84" height="2.74"/>
  <rect class="cls-2" x="2.84" y="24.7" width="2.84" height="2.74"/>
  <rect class="cls-1" x="2.84" y="21.96" width="2.84" height="2.74"/>
  <rect class="cls-1" x="2.84" y="19.21" width="2.84" height="2.74"/>
  <rect class="cls-1" x="2.84" y="16.47" width="2.84" height="2.74"/>
  <rect class="cls-1" x="2.84" y="13.72" width="2.84" height="2.74"/>
  <rect class="cls-1" x="2.84" y="10.98" width="2.84" height="2.75"/>
  <rect class="cls-1" x="2.84" y="8.23" width="2.84" height="2.74"/>
  <rect class="cls-2" x="2.84" y="5.49" width="2.84" height="2.74"/>
  <rect class="cls-2" y="21.96" width="2.84" height="2.74"/>
  <rect class="cls-2" y="19.21" width="2.84" height="2.74"/>
  <rect class="cls-2" y="16.47" width="2.84" height="2.74"/>
  <rect class="cls-2" y="13.72" width="2.84" height="2.74"/>
  <rect class="cls-2" y="10.98" width="2.84" height="2.75"/>
  <rect class="cls-2" y="8.23" width="2.84" height="2.74"/>
</svg>